<svg xmlns:dc="http://purl.org/dc/elements/1.1/" xmlns:cc="http://creativecommons.org/ns#" xmlns:rdf="http://www.w3.org/1999/02/22-rdf-syntax-ns#" xmlns:svg="http://www.w3.org/2000/svg" xmlns="http://www.w3.org/2000/svg" xmlns:sodipodi="http://sodipodi.sourceforge.net/DTD/sodipodi-0.dtd" xmlns:inkscape="http://www.inkscape.org/namespaces/inkscape" xml:space="preserve" width="12.8" height="38.7" version="1.1" style="fill-rule:evenodd" viewBox="0 0 360.91195 1092.8282" id="svg3622" inkscape:version="0.48.3.1 r9886"><metadata id="metadata3637"><rdf:RDF><cc:Work rdf:about=""><dc:format>image/svg+xml</dc:format><dc:type rdf:resource="http://purl.org/dc/dcmitype/StillImage"/></cc:Work></rdf:RDF></metadata><defs id="defs3624">
  <style type="text/css" id="style3626">
   
    .str0 {stroke:#A3A19E;stroke-width:35.27;stroke-linejoin:bevel}
    .fil1 {fill:none}
    .fil0 {fill:white}
   
  </style>
 </defs>
 <g id="_9&#1082;&#1083;&#1072;&#1089;&#1089;&#1085;&#1080;&#1082;" transform="matrix(0.4040436,0,0,0.4040436,-3.3838652,-4.9585574)">
  <metadata id="CorelCorpID_0Corel-Layer"/>
  <g id="g3630">
   <path class="fil0" d="M 455 28 C 594 28 706 141 706 279 706 418 594 530 455 530 317 530 204 418 204 279 204 141 317 28 455 28 z m 0 522 -271 0 c -40 0 -78 25 -106 64 l 0 0 C 49 653 26 712 26 767 l 0 796 c 0 64 38 116 85 116 l 0 0 c 47 0 85 -52 85 -116 l 0 -745 0 1881 223 0 0 -1051 c 0 -20 16 -36 36 -36 l 0 0 0 -1062 z m 0 0 271 0 c 40 0 79 25 107 64 l 0 0 c 28 39 51 98 51 153 l 0 796 c 0 64 -38 116 -84 116 l -1 0 c -46 0 -84 -52 -84 -116 l 0 -745 0 1881 -224 0 0 -1051 c 0 -20 -16 -36 -36 -36 l 0 0 0 -1062 z" id="path3632" inkscape:connector-curvature="0" style="fill:#ffffff"/>
   <path id="1" class="fil1 str0" d="M 455 28 C 594 28 706 141 706 279 706 418 594 530 455 530 317 530 204 418 204 279 204 141 317 28 455 28 z m 0 522 -271 0 c -40 0 -78 25 -106 64 l 0 0 C 49 653 26 712 26 767 l 0 796 c 0 64 38 116 85 116 l 0 0 c 47 0 85 -52 85 -116 l 0 -745 0 1881 223 0 0 -1051 c 0 -20 13.5 -34.8 33.5 -34.8 L 455 1612 m 0 -1062 271 0 c 40 0 79 25 107 64 l 0 0 c 28 39 51 98 51 153 l 0 796 c 0 64 -38 116 -84 116 l -1 0 c -46 0 -84 -52 -84 -116 l 0 -745 0 1881 -224 0 0 -1051 c 0 -20 -16 -36 -36 -36 l -2.5 1.2" inkscape:connector-curvature="0" style="fill:none;stroke:#a3a19e;stroke-width:35.27000046;stroke-linejoin:round"/>
  </g>
 </g>
</svg>
