<?xml version="1.0" encoding="UTF-8" standalone="no"?>
<svg
   xmlns:dc="http://purl.org/dc/elements/1.1/"
   xmlns:cc="http://creativecommons.org/ns#"
   xmlns:rdf="http://www.w3.org/1999/02/22-rdf-syntax-ns#"
   xmlns:svg="http://www.w3.org/2000/svg"
   xmlns="http://www.w3.org/2000/svg"
   xmlns:sodipodi="http://sodipodi.sourceforge.net/DTD/sodipodi-0.dtd"
   xmlns:inkscape="http://www.inkscape.org/namespaces/inkscape"
   style="fill-rule:evenodd"
   xml:space="preserve"
   version="1.1"
   clip-rule="evenodd"
   viewBox="0 0 599.99999 443.24392"
   id="svg3248"
   inkscape:version="0.48.3.1 r9886"
   width="100%"
   height="100%"
   sodipodi:docname="modern_simple_monitor.svg"><sodipodi:namedview
   pagecolor="#ffffff"
   bordercolor="#666666"
   borderopacity="1"
   objecttolerance="10"
   gridtolerance="10"
   guidetolerance="10"
   inkscape:pageopacity="0"
   inkscape:pageshadow="2"
   inkscape:window-width="1863"
   inkscape:window-height="1177"
   id="namedview3300"
   showgrid="false"
   fit-margin-top="0"
   fit-margin-left="0"
   fit-margin-right="0"
   fit-margin-bottom="0"
   inkscape:zoom="1.0812333"
   inkscape:cx="464.02824"
   inkscape:cy="166.543"
   inkscape:window-x="57"
   inkscape:window-y="0"
   inkscape:window-maximized="1"
   inkscape:current-layer="svg3248" />
 <defs
   id="defs3250">
  <style
   type="text/css"
   id="style3252">
    .fil18 {fill:none}
    .fil17 {fill:#090909}
    .fil11 {fill:#161616}
    .fil1 {fill:#1A1A1A}
    .fil16 {fill:#1C1C1C}
    .fil10 {fill:#1F1F1F}
    .fil2 {fill:#252525}
    .fil13 {fill:#2B2B2B}
    .fil3 {fill:#2E2828}
    .fil12 {fill:#383737}
    .fil7 {fill:#A8A8A8}
    .fil6 {fill:#B3B3B3}
    .fil20 {fill:#BAB4B4}
    .fil15 {fill:silver}
    .fil9 {fill:#C5C5C5}
    .fil19 {fill:#C9C3C3}
    .fil14 {fill:#D6D3D3}
    .fil8 {fill:#DBDBDB}
    .fil0 {fill:white}
    .fil5 {fill:silver;fill-rule:nonzero}
    .fil4 {fill:#D6D3D3;fill-rule:nonzero}
  </style>
 
  
  
 
    
    
    
     
     
    
    
    
    
    
    
    
    
    
    
    
    
   
   
   
  </defs>
 <g
   id="g3344"
   transform="matrix(0.07591093,0,0,0.07591093,-41.59919,-47.975708)"><path
     style="fill:#1a1a1a"
     inkscape:connector-curvature="0"
     id="path3258"
     d="m 4516,632 h 3837 c 27,0 52,11 70,29 18,18 29,43 29,70 v 4521 c 0,27 -11,52 -29,70 -18,18 -43,29 -70,29 H 4813 v 785 h 1450 l 96,177 v 69 h -8 l -13,89 H 2662 l -13,-89 h -8 v -69 l 96,-177 H 4187 V 5351 H 647 c -27,0 -52,-11 -70,-29 -18,-18 -29,-43 -29,-70 V 731 c 0,-27 11,-52 29,-70 18,-18 43,-29 70,-29 h 3869 z"
     class="fil1" /><path
     style="fill:#252525"
     inkscape:connector-curvature="0"
     id="path3260"
     d="m 4500,648 h 3852 c 47,0 84,37 84,84 v 4519 c 0,46 -37,84 -84,84 H 648 c -47,0 -84,-38 -84,-84 V 732 c 0,-47 37,-84 84,-84 h 3852 z"
     class="fil2" /><path
     style="fill:#d6d3d3;fill-rule:nonzero"
     inkscape:connector-curvature="0"
     id="path3264"
     d="M 4468,663 H 647 c -18,0 -35,8 -48,20 -12,13 -20,30 -20,48 v 4521 c 0,18 8,35 20,47 13,13 30,20 48,20 h 3821 v -245 h 32 v 277 H 647 c -27,0 -52,-11 -70,-29 -18,-18 -29,-43 -29,-70 V 731 c 0,-27 11,-52 29,-70 18,-18 43,-29 70,-29 h 3853 v 31 h -32 z"
     class="fil4" /><path
     style="fill:#c0c0c0;fill-rule:nonzero"
     inkscape:connector-curvature="0"
     id="path3266"
     d="m 4532,663 h 3821 c 18,0 35,8 48,20 12,13 20,30 20,48 v 4521 c 0,18 -8,35 -20,47 -13,13 -30,20 -48,20 H 4532 v -245 h -32 v 277 h 3853 c 27,0 52,-11 70,-29 18,-18 29,-43 29,-70 V 731 c 0,-27 -11,-52 -29,-70 -18,-18 -43,-29 -70,-29 H 4500 v 31 h 32 z"
     class="fil5" /><polygon
     style="fill:#b3b3b3"
     id="polygon3268"
     class="fil6"
     points="4500,6136 2737,6136 2641,6313 4500,6313 " /><polygon
     style="fill:#a8a8a8"
     id="polygon3270"
     class="fil7"
     points="4500,6136 6263,6136 6359,6313 4500,6313 " /><rect
     style="fill:#dbdbdb"
     id="rect3272"
     height="68.660004"
     class="fil8"
     width="1859"
     x="2641"
     y="6313" /><rect
     style="fill:#c5c5c5"
     id="rect3274"
     height="68.660004"
     class="fil9"
     width="1859"
     x="4500"
     y="6313" /><polygon
     style="fill:#1f1f1f"
     id="polygon3276"
     class="fil10"
     points="2649,6382 4500,6382 4500,6471 2662,6471 " /><polygon
     style="fill:#161616"
     id="polygon3278"
     class="fil11"
     points="6351,6382 4500,6382 4500,6471 6338,6471 " /><rect
     style="fill:#383737"
     id="rect3280"
     height="120"
     class="fil12"
     width="313"
     x="4187"
     y="6193" /><rect
     style="fill:#2b2b2b"
     id="rect3282"
     height="120"
     class="fil13"
     width="313"
     x="4500"
     y="6193" /><path
     style="fill:#d6d3d3"
     inkscape:connector-curvature="0"
     id="path3284"
     d="m 564,5074 v 178 c 0,46 37,83 83,83 H 4484 V 5074 H 564 z"
     class="fil14" /><path
     style="fill:#c0c0c0"
     inkscape:connector-curvature="0"
     id="path3286"
     d="m 8436,5074 v 178 c 0,46 -37,83 -83,83 H 4516 v -261 h 3920 z"
     class="fil15" /><rect
     style="fill:#1c1c1c"
     id="rect3288"
     height="842"
     class="fil16"
     width="313"
     x="4187"
     y="5351" /><rect
     style="fill:#090909"
     id="rect3290"
     height="842"
     class="fil17"
     width="313"
     x="4500"
     y="5351" /><rect
     style="fill:none"
     id="rect3292"
     height="197"
     class="fil18"
     width="627"
     x="4187"
     y="5407" /><path
     style="fill:#c9c3c3"
     inkscape:connector-curvature="0"
     id="path3294"
     d="m 4372,5262 c -1,4 -6,4 -10,4 -2,0 -2,0 -3,-1 -1,-1 -1,-1 -1,-3 0,-1 1,-4 2,-6 1,0 1,-1 2,-2 0,-1 1,-1 2,-2 1,-1 2,-3 4,-1 1,2 6,7 4,11 z m 30,-13 c 1,0 4,4 4,5 -1,0 -5,-3 -4,-5 z m 191,7 1,-1 v 2 l -1,-1 z m -2,-9 c -1,-1 0,-4 1,-5 0,2 0,4 -1,5 z m -40,-9 c 0,2 -1,4 -2,5 0,1 -5,11 -8,8 -3,-3 7,-12 10,-13 z m 65,2 c 2,0 2,0 3,1 2,0 2,-1 3,0 0,1 -1,6 -1,7 -1,-1 -5,-6 -5,-8 z m -245,6 c 4,-4 18,-8 24,-8 3,0 2,-1 7,-1 6,1 16,2 18,9 1,2 1,4 0,6 0,1 -1,4 -2,5 -5,3 -5,-9 -13,-14 -2,-1 -6,-4 -9,-1 -2,3 -2,8 0,11 2,5 6,7 11,9 2,1 3,1 4,2 1,2 2,3 3,4 2,2 2,3 5,3 1,-1 2,-3 3,-4 1,-2 1,-3 4,-3 2,0 3,0 5,-1 4,0 3,0 6,-1 5,-2 4,-3 7,-6 2,3 1,11 7,9 3,0 2,-4 2,-6 -1,-3 1,-11 2,-15 1,-1 2,-3 4,-5 2,-3 9,-5 11,-1 1,2 -1,4 -2,6 -1,1 -3,6 -4,7 -1,5 0,11 5,13 6,3 8,3 15,2 4,-1 6,-3 9,-5 0,-1 1,-3 2,-3 1,2 2,14 7,12 1,0 2,-1 3,-2 1,-3 -1,-4 -1,-6 -1,-2 -1,-9 -1,-11 v -4 c 0,-3 1,-8 1,-10 2,-5 11,-4 13,2 0,2 0,3 -1,4 -1,2 -1,2 -2,3 -1,1 0,1 -2,4 -3,3 -5,6 -5,11 0,0 1,3 2,3 6,7 21,3 28,0 1,0 6,-3 7,-3 0,2 -1,5 1,8 2,2 2,3 4,5 4,4 11,4 16,3 3,-1 8,-2 10,-4 1,-1 2,-1 3,-2 2,-1 10,-9 11,-9 1,0 2,2 3,3 2,1 3,2 5,2 1,1 3,0 4,-1 3,-3 -1,-12 -1,-16 -1,-2 -1,-4 -1,-6 0,-1 1,-4 1,-5 h 7 c 2,0 3,2 3,4 2,3 4,7 6,10 2,3 5,6 6,9 0,1 2,4 3,5 1,2 2,2 5,1 1,-1 2,-4 1,-5 -1,-4 -4,-4 -4,-11 1,-1 0,-2 1,-4 v -3 c 1,-4 4,-9 -1,-11 -1,-2 -4,-1 -6,-1 -2,0 -6,0 -7,-1 -1,-2 -1,-5 0,-6 0,-2 2,-3 3,-5 2,-1 10,-3 12,-4 11,-2 15,-2 26,-3 7,-1 24,-1 30,0 3,1 2,2 5,3 2,0 5,-1 7,-1 2,1 4,1 6,-1 1,-2 1,-5 0,-6 -2,-3 -4,-2 -6,-1 l -34,-1 h -3 c -4,0 -11,0 -15,1 -7,0 -19,1 -25,5 -1,0 -2,0 -3,1 -2,1 -5,3 -7,5 -4,6 -3,11 -3,12 -1,1 -5,0 -7,0 -1,-1 -3,-3 -4,-2 -1,0 -3,3 -4,4 -1,1 -2,1 -3,3 -3,2 -4,6 -5,9 v 7 c 1,2 2,3 0,5 -4,5 -9,9 -15,12 -3,0 -9,2 -12,1 -3,-1 -2,0 -4,-2 -2,-2 -3,-4 -2,-6 1,-1 6,-2 8,-2 h 4 c 1,-1 2,-3 2,-3 1,-3 -2,-5 -5,-5 -1,0 -8,1 -9,1 0,-1 3,-7 4,-8 1,-2 4,-11 3,-13 0,-3 -3,-4 -6,-3 -1,0 -3,2 -4,2 -5,4 -7,4 -11,11 -2,2 -3,4 -4,8 -1,3 3,6 3,7 -1,1 -4,2 -4,2 -2,1 -4,1 -6,1 -2,1 -10,1 -11,0 -2,-7 15,-14 6,-27 -3,-4 -8,-7 -13,-6 -2,0 -6,1 -8,2 -1,1 -1,6 -2,7 -1,-1 -2,-4 -6,-2 -4,2 2,12 -3,21 -2,3 -8,5 -12,5 -5,-1 -9,-4 -5,-10 2,-3 5,-9 5,-12 0,-2 -1,-5 -3,-6 -1,-2 -3,-3 -5,-3 -7,-3 -13,2 -17,8 -1,1 -2,5 -3,6 -1,-1 -2,-8 -6,-6 -4,1 -2,6 -3,9 0,4 -1,7 -4,9 -2,1 -9,3 -10,2 -1,-3 2,-10 0,-15 -2,-3 -5,-6 -9,-8 -10,-5 -30,-4 -40,1 l -6,3 c -5,2 -5,5 -10,-1 -2,-1 -16,-8 -16,-9 0,-1 6,-4 7,-5 2,-1 4,-3 6,-4 4,-4 8,-8 11,-12 6,-9 12,-23 2,-32 -8,-7 -25,-8 -36,-5 -41,8 -45,54 -33,87 1,4 4,13 7,15 2,2 6,3 5,-1 -1,-1 -3,-2 -5,-7 -8,-21 -13,-51 0,-71 6,-9 16,-15 26,-17 10,-2 29,-3 35,7 4,9 -7,23 -13,29 -4,3 -9,6 -13,9 -2,1 -6,2 -7,4 -3,3 -2,5 1,7 1,1 9,5 11,6 3,1 9,5 11,6 1,2 1,2 -1,3 -3,4 -4,6 -6,10 -2,3 -2,7 -1,10 1,2 4,4 6,5 1,1 8,1 10,0 6,-1 11,-5 11,-11 -1,-7 -7,-13 -8,-15 z"
     class="fil19" /><path
     style="fill:#bab4b4"
     inkscape:connector-curvature="0"
     id="path3296"
     d="m 4500,5270 v -41 c 2,-1 6,-2 8,-2 5,-1 10,2 13,6 9,13 -8,20 -6,27 1,1 9,1 11,0 2,0 4,0 6,-1 0,0 3,-1 4,-2 0,-1 -4,-4 -3,-7 1,-4 2,-6 4,-8 4,-7 6,-7 11,-11 1,0 3,-2 4,-2 3,-1 6,0 6,3 1,2 -3,11 -3,13 -1,1 -4,7 -4,8 1,0 8,-1 9,-1 3,0 6,2 5,5 0,0 -1,2 -2,3 h -4 c -2,0 -7,1 -8,2 -1,2 0,4 2,6 2,2 1,1 4,2 3,1 9,-1 12,-1 6,-3 11,-7 15,-12 2,-2 1,-3 0,-5 v -7 c 1,-3 2,-7 5,-9 1,-2 2,-2 3,-3 1,-1 3,-4 4,-4 1,-1 3,1 4,2 2,0 6,1 7,0 0,-1 -1,-6 3,-12 2,-2 5,-4 7,-5 1,-1 2,-1 3,-1 6,-4 18,-5 25,-5 4,-1 11,-1 15,-1 h 3 l 34,1 c 2,-1 4,-2 6,1 1,1 1,4 0,6 -2,2 -4,2 -6,1 -2,0 -5,1 -7,1 -3,-1 -2,-2 -5,-3 -6,-1 -23,-1 -30,0 -11,1 -15,1 -26,3 -2,1 -10,3 -12,4 -1,2 -3,3 -3,5 -1,1 -1,4 0,6 1,1 5,1 7,1 2,0 5,-1 6,1 5,2 2,7 1,11 v 3 c -1,2 0,3 -1,4 0,7 3,7 4,11 1,1 0,4 -1,5 -3,1 -4,1 -5,-1 -1,-1 -3,-4 -3,-5 -1,-3 -4,-6 -6,-9 -2,-3 -4,-7 -6,-10 0,-2 -1,-4 -3,-4 h -7 c 0,1 -1,4 -1,5 0,2 0,4 1,6 0,4 4,13 1,16 -1,1 -3,2 -4,1 -2,0 -3,-1 -5,-2 -1,-1 -2,-3 -3,-3 -1,0 -9,8 -11,9 -1,1 -2,1 -3,2 -2,2 -7,3 -10,4 -5,1 -12,1 -16,-3 -2,-2 -2,-3 -4,-5 -2,-3 -1,-6 -1,-8 -1,0 -6,3 -7,3 -7,3 -22,7 -28,0 -1,0 -2,-3 -2,-3 0,-5 2,-8 5,-11 2,-3 1,-3 2,-4 1,-1 1,-1 2,-3 1,-1 1,-2 1,-4 -2,-6 -11,-7 -13,-2 0,2 -1,7 -1,10 v 4 c 0,2 0,9 1,11 0,2 2,3 1,6 -1,1 -2,2 -3,2 -1,1 -1,1 -2,0 z m 93,-14 1,-1 v 2 l -1,-1 z m -2,-9 c -1,-1 0,-4 1,-5 0,2 0,4 -1,5 z m -40,-9 c 0,2 -1,4 -2,5 0,1 -5,11 -8,8 -3,-3 7,-12 10,-13 z m 65,2 c 2,0 2,0 3,1 2,0 2,-1 3,0 0,1 -1,6 -1,7 -1,-1 -5,-6 -5,-8 z"
     class="fil20" /></g>
<metadata
   id="metadata3298"><rdf:RDF><cc:Work><dc:format>image/svg+xml</dc:format><dc:type
         rdf:resource="http://purl.org/dc/dcmitype/StillImage" /><cc:license
         rdf:resource="http://creativecommons.org/licenses/publicdomain/" /><dc:publisher><cc:Agent
           rdf:about="http://openclipart.org/"><dc:title>Openclipart</dc:title></cc:Agent></dc:publisher><dc:title>Simple LED Monitor</dc:title><dc:date>2013-08-26T14:35:37</dc:date><dc:description>Simple LED or LCD monitor with a thin bezel.</dc:description><dc:source>https://openclipart.org/detail/182214/simple-led-monitor-by-barrettward-182214</dc:source><dc:creator><cc:Agent><dc:title>barrettward</dc:title></cc:Agent></dc:creator><dc:subject><rdf:Bag><rdf:li>bezel</rdf:li><rdf:li>computer</rdf:li><rdf:li>lcd</rdf:li><rdf:li>led</rdf:li><rdf:li>monitor</rdf:li><rdf:li>screen</rdf:li></rdf:Bag></dc:subject></cc:Work><cc:License
       rdf:about="http://creativecommons.org/licenses/publicdomain/"><cc:permits
         rdf:resource="http://creativecommons.org/ns#Reproduction" /><cc:permits
         rdf:resource="http://creativecommons.org/ns#Distribution" /><cc:permits
         rdf:resource="http://creativecommons.org/ns#DerivativeWorks" /></cc:License></rdf:RDF></metadata></svg>