<?xml version="1.0" encoding="UTF-8"?>
<!DOCTYPE svg PUBLIC "-//W3C//DTD SVG 1.1//EN" "http://www.w3.org/Graphics/SVG/1.1/DTD/svg11.dtd">
<!-- Creator: CorelDRAW X7 -->
<svg xmlns="http://www.w3.org/2000/svg" xml:space="preserve" width="8.9956mm" height="27.252mm" version="1.1" style="shape-rendering:geometricPrecision; text-rendering:geometricPrecision; image-rendering:optimizeQuality; fill-rule:evenodd; clip-rule:evenodd"
viewBox="0 0 900 2725"
 xmlns:xlink="http://www.w3.org/1999/xlink">
 <defs>
  <style type="text/css">
   <![CDATA[
    .str0 {stroke:#A3A19E;stroke-width:35.27;stroke-linejoin:bevel}
    .fil1 {fill:none}
    .fil0 {fill:white}
   ]]>
  </style>
 </defs>
 <g id="_9классник">
  <metadata id="CorelCorpID_0Corel-Layer"/>
  <g>
   <path class="fil0" d="M455 28c139,0 251,113 251,251 0,139 -112,251 -251,251 -138,0 -251,-112 -251,-251 0,-138 113,-251 251,-251zm0 522l-271 0c-40,0 -78,25 -106,64l0 0c-29,39 -52,98 -52,153l0 796c0,64 38,116 85,116l0 0c47,0 85,-52 85,-116l0 -745 0 1881 223 0 0 -1051c0,-20 16,-36 36,-36l0 0 0 -1062zm0 0l271 0c40,0 79,25 107,64l0 0c28,39 51,98 51,153l0 796c0,64 -38,116 -84,116l-1 0c-46,0 -84,-52 -84,-116l0 -745 0 1881 -224 0 0 -1051c0,-20 -16,-36 -36,-36l0 0 0 -1062z"/>
   <path id="1" class="fil1 str0" d="M455 28c139,0 251,113 251,251 0,139 -112,251 -251,251 -138,0 -251,-112 -251,-251 0,-138 113,-251 251,-251zm0 522l-271 0c-40,0 -78,25 -106,64l0 0c-29,39 -52,98 -52,153l0 796c0,64 38,116 85,116l0 0c47,0 85,-52 85,-116l0 -745 0 1881 223 0 0 -1051c0,-20 16,-36 36,-36l0 0m0 -1062l271 0c40,0 79,25 107,64l0 0c28,39 51,98 51,153l0 796c0,64 -38,116 -84,116l-1 0c-46,0 -84,-52 -84,-116l0 -745 0 1881 -224 0 0 -1051c0,-20 -16,-36 -36,-36l0 0"/>
  </g>
 </g>
</svg>
