<?xml version="1.0" encoding="UTF-8"?>
<!DOCTYPE svg PUBLIC "-//W3C//DTD SVG 1.1//EN" "http://www.w3.org/Graphics/SVG/1.1/DTD/svg11.dtd">
<!-- Creator: CorelDRAW X7 -->
<svg xmlns="http://www.w3.org/2000/svg" xml:space="preserve" width="10.8478mm" height="32.5428mm" version="1.1" style="shape-rendering:geometricPrecision; text-rendering:geometricPrecision; image-rendering:optimizeQuality; fill-rule:evenodd; clip-rule:evenodd"
viewBox="0 0 1085 3254"
 xmlns:xlink="http://www.w3.org/1999/xlink">
 <defs>
  <style type="text/css">
   <![CDATA[
    .str0 {stroke:#9D9E9E;stroke-width:35.27}
    .fil1 {fill:none}
    .fil0 {fill:#FF0037}
   ]]>
  </style>
 </defs>
 <g id="_11классник">
  <metadata id="CorelCorpID_0Corel-Layer"/>
  <g>
   <path class="fil0" d="M542 25c167,0 301,135 301,301 0,166 -134,301 -301,301 -166,0 -301,-135 -301,-301 0,-166 135,-301 301,-301zm0 626l-325 0c-48,0 -94,30 -128,77l0 0c-34,47 -61,118 -61,184l0 955c0,77 45,139 101,139l1 0c56,0 101,-62 101,-139l0 -894 0 2256 268 0 0 -1260c0,-24 20,-43 43,-43l0 0 0 -1275zm0 0l326 0c48,0 94,30 128,77l0 0c34,47 61,118 61,184l0 955c0,77 -46,139 -101,139l-1 0c-56,0 -101,-62 -101,-139l0 -894 0 2256 -268 0 0 -1260c0,-24 -20,-43 -44,-43l0 0 0 -1275z"/>
   <path id="1" class="fil1 str0" d="M542 25c167,0 301,135 301,301 0,166 -134,301 -301,301 -166,0 -301,-135 -301,-301 0,-166 135,-301 301,-301zm0 626l-325 0c-48,0 -94,30 -128,77l0 0c-34,47 -61,118 -61,184l0 955c0,77 45,139 101,139l1 0c56,0 101,-62 101,-139l0 -894 0 2256 268 0 0 -1260c0,-24 20,-43 43,-43l0 0m0 -1275l326 0c48,0 94,30 128,77l0 0c34,47 61,118 61,184l0 955c0,77 -46,139 -101,139l-1 0c-56,0 -101,-62 -101,-139l0 -894 0 2256 -268 0 0 -1260c0,-24 -20,-43 -44,-43l0 0"/>
  </g>
 </g>
</svg>
