<?xml version="1.0" encoding="UTF-8" standalone="no"?>
<svg
   xmlns:dc="http://purl.org/dc/elements/1.1/"
   xmlns:cc="http://creativecommons.org/ns#"
   xmlns:rdf="http://www.w3.org/1999/02/22-rdf-syntax-ns#"
   xmlns:svg="http://www.w3.org/2000/svg"
   xmlns="http://www.w3.org/2000/svg"
   xmlns:sodipodi="http://sodipodi.sourceforge.net/DTD/sodipodi-0.dtd"
   xmlns:inkscape="http://www.inkscape.org/namespaces/inkscape"
   width="304"
   height="364"
   viewBox="0 0 186.98743 223.89284"
   id="svg3078"
   version="1.1"
   inkscape:version="0.48.3.1 r9886"
   sodipodi:docname="ruble_sign.svg">
  <metadata
     id="metadata3086">
    <rdf:RDF>
      <cc:Work
         rdf:about="">
        <dc:format>image/svg+xml</dc:format>
        <dc:type
           rdf:resource="http://purl.org/dc/dcmitype/StillImage" />
      </cc:Work>
    </rdf:RDF>
  </metadata>
  <defs
     id="defs3084" />
  <sodipodi:namedview
     pagecolor="#ffffff"
     bordercolor="#666666"
     borderopacity="1"
     objecttolerance="10"
     gridtolerance="10"
     guidetolerance="10"
     inkscape:pageopacity="0"
     inkscape:pageshadow="2"
     inkscape:window-width="1863"
     inkscape:window-height="1177"
     id="namedview3082"
     showgrid="false"
     inkscape:zoom="1.3296703"
     inkscape:cx="26.404959"
     inkscape:cy="182"
     inkscape:window-x="57"
     inkscape:window-y="0"
     inkscape:window-maximized="1"
     inkscape:current-layer="svg3078" />
  <path
     d="M23.17,158.988H8.97634V136.28H23.17 V126.982H8.97634V103.854H23.17V1.63H73.5603 C128.508,1.8342,128.733,1.84521,138.099,4.78747 C170.408,14.936,178.011,46.5832,178.011,64.504 C178.011,84.3048,168.653,123.18,116.857,126.484 C112.597,126.755,95.2086,126.979,78.2166,126.979 L47.37,126.981V136.28H135.438V158.988H47.37 V222.444H23.17Z M120.68,103.854 C141.973,99.6892,150.544,79.031,150.544,64.504 C150.544,47.666,145.033,36.3847,135.082,29.5052 C128.934,25.2555,131.218,25.4558,86.6048,25.2532 L47.37,25.075V103.854Z"
     id="path3080"
     style="fill:#ffffff;fill-opacity:1;stroke:#000000;stroke-opacity:1" />
</svg>
