<?xml version="1.0" encoding="UTF-8"?>
<!DOCTYPE svg PUBLIC "-//W3C//DTD SVG 1.1//EN" "http://www.w3.org/Graphics/SVG/1.1/DTD/svg11.dtd">
<!-- Creator: CorelDRAW X7 -->
<svg xmlns="http://www.w3.org/2000/svg" xml:space="preserve" width="10.0538mm" height="29.8974mm" version="1.1" style="shape-rendering:geometricPrecision; text-rendering:geometricPrecision; image-rendering:optimizeQuality; fill-rule:evenodd; clip-rule:evenodd"
viewBox="0 0 1005 2990"
 xmlns:xlink="http://www.w3.org/1999/xlink">
 <defs>
  <style type="text/css">
   <![CDATA[
    .str0 {stroke:#A3A19E;stroke-width:35.27;stroke-linejoin:bevel}
    .fil1 {fill:none}
    .fil0 {fill:#1238B5}
   ]]>
  </style>
 </defs>
 <g id="_10классник">
  <metadata id="CorelCorpID_0Corel-Layer"/>
  <g>
   <path class="fil0" d="M503 26c152,0 276,124 276,276 0,153 -124,276 -276,276 -153,0 -276,-123 -276,-276 0,-152 123,-276 276,-276zm0 574l-298 0c-44,0 -87,28 -118,71l0 0c-31,43 -56,107 -56,168l0 876c0,70 42,127 93,127l1 0c51,0 92,-57 92,-127l0 -820 0 2069 246 0 0 -1156c0,-22 18,-40 40,-40l0 0 0 -1168zm0 0l298 0c44,0 86,28 117,71l0 0c31,43 56,107 56,168l0 876c0,70 -41,127 -92,127l-1 0c-51,0 -93,-57 -93,-127l0 -820 0 2069 -246 0 0 -1156c0,-22 -17,-40 -39,-40l0 0 0 -1168z"/>
   <path id="1" class="fil1 str0" d="M503 26c152,0 276,124 276,276 0,153 -124,276 -276,276 -153,0 -276,-123 -276,-276 0,-152 123,-276 276,-276zm0 574l-298 0c-44,0 -87,28 -118,71l0 0c-31,43 -56,107 -56,168l0 876c0,70 42,127 93,127l1 0c51,0 92,-57 92,-127l0 -820 0 2069 246 0 0 -1156c0,-22 18,-40 40,-40l0 0m0 -1168l298 0c44,0 86,28 117,71l0 0c31,43 56,107 56,168l0 876c0,70 -41,127 -92,127l-1 0c-51,0 -93,-57 -93,-127l0 -820 0 2069 -246 0 0 -1156c0,-22 -17,-40 -39,-40l0 0"/>
  </g>
 </g>
</svg>
